<?xml version="1.0" standalone="no"?>
<!DOCTYPE svg PUBLIC "-//W3C//DTD SVG 20010904//EN"
 "http://www.w3.org/TR/2001/REC-SVG-20010904/DTD/svg10.dtd">
<svg version="1.0" xmlns="http://www.w3.org/2000/svg"
 width="512.000000pt" height="512.000000pt" viewBox="0 0 512.000000 512.000000"
 preserveAspectRatio="xMidYMid meet">
<metadata>
Created by potrace 1.14, written by Peter Selinger 2001-2017
</metadata>
<g transform="translate(0.000000,512.000000) scale(0.100000,-0.100000)"
fill="#000000" stroke="none">
<path d="M3170 4619 c0 -5 5 -7 10 -4 6 3 10 8 10 11 0 2 -4 4 -10 4 -5 0 -10
-5 -10 -11z"/>
<path d="M3190 4605 c-7 -8 -17 -12 -23 -8 -6 3 -7 1 -3 -6 4 -6 13 -8 19 -5
7 4 9 3 4 -1 -13 -15 -48 -13 -43 1 3 7 0 16 -6 20 -7 4 -8 3 -4 -4 4 -7 2
-12 -4 -12 -6 0 -8 -4 -5 -10 3 -6 -4 -10 -17 -10 -19 0 -20 2 -8 11 12 9 11
9 -5 4 -11 -4 -29 -7 -40 -7 -16 1 -17 -1 -5 -8 16 -10 8 -23 -15 -26 -9 -1
-12 2 -8 9 5 8 2 8 -9 0 -8 -7 -19 -9 -23 -5 -5 4 -5 -1 -2 -10 4 -12 1 -18
-8 -18 -8 0 -15 -8 -15 -17 0 -15 -2 -16 -10 -3 -8 12 -10 10 -10 -8 0 -15 -5
-22 -12 -19 -7 2 -21 0 -30 -5 -14 -7 -16 -5 -11 8 5 13 3 15 -7 9 -9 -5 -11
-4 -6 4 4 6 0 19 -10 28 -16 16 -16 16 -10 -3 4 -15 1 -20 -14 -21 -14 -1 -18
2 -13 10 10 16 13 41 5 32 -4 -4 -7 -12 -7 -18 -1 -7 -7 -11 -14 -9 -8 2 -11
-3 -8 -11 3 -9 -4 -19 -19 -25 -16 -8 -22 -16 -17 -28 5 -13 3 -15 -7 -9 -10
6 -12 3 -8 -13 4 -12 2 -20 -3 -16 -5 3 -9 -4 -9 -16 0 -12 -4 -18 -10 -15 -6
3 -7 -1 -4 -9 3 -9 1 -16 -5 -16 -6 0 -10 -3 -9 -7 3 -15 -14 -63 -21 -58 -4
2 -8 -2 -8 -10 0 -8 5 -15 11 -15 7 0 8 -3 1 -8 -16 -11 -32 -55 -29 -75 2
-14 -2 -18 -17 -14 -10 3 -19 0 -19 -5 0 -7 -5 -6 -14 1 -10 8 -16 9 -21 1 -4
-7 -12 -7 -24 0 -10 5 -21 7 -24 4 -9 -10 -57 -12 -63 -2 -3 4 -11 5 -17 1
-17 -11 -57 -11 -63 -1 -3 5 -17 2 -30 -6 -28 -19 -38 -20 -28 -3 4 6 -3 3
-16 -8 -14 -12 -20 -14 -15 -5 7 12 6 13 -6 4 -8 -5 -26 -10 -41 -9 -16 0 -28
-3 -28 -8 0 -4 -4 -5 -10 -2 -5 3 -18 1 -29 -5 -11 -5 -33 -12 -48 -13 -15 -2
-36 -7 -45 -10 -46 -18 -54 -20 -63 -21 -5 -1 -13 3 -17 9 -5 6 -8 2 -8 -9 0
-13 -5 -16 -17 -12 -10 4 -14 4 -10 0 9 -10 -63 -35 -76 -27 -6 3 -7 1 -3 -5
3 -6 2 -13 -4 -17 -5 -3 -10 0 -10 7 -1 8 -6 6 -15 -6 -8 -11 -15 -16 -15 -12
0 5 -7 3 -15 -4 -8 -6 -19 -9 -25 -5 -6 4 -9 1 -8 -7 2 -7 -4 -12 -14 -10 -9
1 -20 -3 -24 -9 -5 -8 -3 -9 6 -4 8 5 11 4 6 -3 -4 -6 -13 -9 -21 -5 -8 3 -15
0 -15 -7 0 -6 -5 -8 -10 -5 -6 3 -13 -1 -16 -10 -5 -12 -9 -13 -21 -4 -11 10
-13 9 -11 -2 2 -8 -4 -13 -14 -13 -10 1 -15 -2 -12 -7 3 -5 0 -9 -6 -9 -6 0
-8 -5 -4 -11 4 -8 1 -8 -12 -1 -11 5 -26 11 -34 14 -10 3 -8 6 8 10 14 4 20 2
15 -4 -3 -7 -1 -8 5 -4 19 12 14 26 -9 23 -12 -1 -24 5 -26 13 -4 12 -3 12 5
1 8 -10 14 -11 28 -1 18 11 18 11 0 6 -14 -5 -17 -2 -12 9 3 9 2 13 -3 10 -5
-3 -13 0 -17 6 -4 8 -3 9 4 5 7 -4 12 -3 12 2 0 17 -13 21 -34 11 -21 -10 -20
-9 49 45 16 13 17 15 2 10 -13 -5 -16 -2 -11 12 5 15 4 16 -4 4 -6 -8 -8 -19
-5 -25 4 -5 -3 -1 -15 9 -15 13 -19 23 -12 31 5 6 7 15 3 18 -3 4 2 17 13 28
19 22 19 22 -3 10 -14 -7 -24 -8 -28 -1 -6 10 -5 11 14 14 5 0 13 5 18 10 5 5
3 6 -5 2 -8 -5 -13 -3 -11 5 3 27 -1 40 -11 34 -5 -3 -10 -2 -10 4 0 5 5 11
12 13 7 3 5 7 -6 11 -9 4 -15 3 -11 -2 3 -5 0 -13 -6 -17 -7 -4 -9 -3 -5 4 3
6 1 14 -5 17 -5 4 -8 13 -5 20 2 7 -4 21 -15 31 -14 12 -16 21 -8 30 7 8 7 14
-1 19 -5 3 -10 1 -10 -5 0 -6 -5 -8 -11 -4 -8 5 -8 9 1 14 7 4 9 13 6 19 -4 6
-11 9 -16 6 -5 -3 -11 -1 -14 4 -4 5 1 8 9 7 24 -4 55 -43 50 -65 -2 -11 0
-23 6 -26 14 -10 7 48 -9 67 -13 15 -13 20 -1 35 9 11 10 14 2 9 -8 -4 -17 2
-25 18 -6 14 -15 26 -19 26 -4 0 -11 9 -14 20 -4 12 -11 17 -18 14 -7 -4 -8
-3 -4 2 5 5 13 9 19 9 16 0 19 35 3 41 -8 3 -11 13 -8 22 4 14 3 15 -5 2 -6
-8 -8 -19 -5 -25 3 -5 0 -5 -7 2 -9 9 -19 9 -32 2 -18 -9 -18 -8 -8 10 6 12
13 21 16 21 3 0 3 -4 0 -8 -3 -5 1 -9 9 -9 20 0 19 13 -1 21 -14 5 -14 9 -3
24 12 15 12 16 -2 5 -9 -7 -20 -9 -24 -5 -5 4 -5 1 -1 -5 4 -7 3 -13 -3 -13
-6 0 -8 -8 -5 -17 4 -14 3 -15 -4 -5 -5 8 -13 13 -18 12 -5 -1 -10 4 -12 12
-3 10 -2 10 6 -1 5 -7 12 -9 15 -5 3 5 -1 15 -9 22 -9 8 -14 9 -14 2 0 -6 -4
-9 -9 -6 -5 3 -8 -2 -7 -12 0 -9 -5 -16 -13 -14 -7 1 -21 -3 -30 -10 -13 -10
-14 -10 -4 2 7 8 13 21 13 30 0 8 -8 0 -16 -17 -10 -20 -24 -33 -36 -33 -12 0
-16 4 -12 12 4 6 3 8 -3 5 -6 -4 -9 -18 -7 -33 1 -14 0 -23 -3 -20 -4 3 -22
-6 -41 -21 -20 -15 -32 -22 -29 -16 4 7 -2 10 -17 9 -13 0 -23 -3 -21 -5 2 -2
-3 -10 -11 -18 -8 -8 -12 -19 -9 -24 4 -5 2 -9 -4 -9 -10 0 -9 -25 2 -36 4 -4
3 -12 -2 -18 -14 -17 -14 -28 1 -37 11 -7 11 -9 -1 -9 -11 0 -11 -3 -1 -15 10
-12 10 -15 0 -15 -10 0 -10 -3 0 -15 10 -12 10 -15 -1 -15 -9 0 -10 -3 -4 -8
6 -4 10 -23 10 -42 0 -19 4 -40 8 -47 4 -6 3 -14 -3 -18 -6 -3 -8 -11 -5 -16
4 -5 3 -9 -2 -9 -13 0 -12 -70 1 -70 6 0 3 -5 -7 -11 -9 -6 -14 -15 -11 -21 4
-6 0 -14 -7 -19 -11 -7 -11 -9 -1 -9 9 0 10 -5 3 -19 -6 -10 -7 -21 -4 -25 3
-3 1 -6 -6 -6 -7 0 -10 -4 -6 -9 3 -5 1 -12 -5 -16 -6 -4 -8 -11 -5 -16 4 -5
1 -9 -5 -9 -6 0 -8 -4 -5 -10 3 -5 1 -10 -4 -10 -6 0 -11 -7 -11 -16 0 -8 -4
-13 -8 -10 -9 5 -11 -6 -12 -59 -1 -16 -7 -33 -13 -37 -9 -6 -8 -11 3 -18 11
-7 11 -10 2 -10 -7 0 -10 -4 -7 -10 3 -5 2 -10 -3 -10 -5 0 -8 -10 -7 -22 1
-13 -6 -34 -15 -48 -9 -14 -15 -31 -13 -37 3 -7 1 -13 -4 -13 -9 0 -11 -6 -15
-49 -1 -11 -7 -17 -12 -14 -5 4 -7 -1 -3 -11 4 -10 1 -19 -7 -22 -8 -3 -13
-14 -11 -25 2 -10 0 -19 -5 -19 -5 0 -7 -9 -5 -20 2 -11 0 -18 -6 -15 -5 4
-10 0 -11 -7 0 -7 -2 -17 -3 -23 -2 -5 -3 -16 -4 -23 0 -7 -4 -11 -9 -9 -4 3
-8 -13 -9 -35 -1 -21 -6 -45 -12 -52 -6 -7 -8 -16 -4 -19 3 -4 1 -7 -6 -7 -7
0 -11 -6 -8 -14 3 -8 1 -16 -4 -18 -6 -2 -12 -12 -14 -23 -2 -11 -4 -21 -5
-22 -2 -2 -4 -7 -5 -13 -1 -5 -3 -11 -5 -12 -4 -6 -12 -44 -14 -65 0 -11 -4
-19 -7 -17 -9 5 -20 -26 -13 -37 3 -5 0 -9 -6 -9 -6 0 -8 -4 -5 -10 3 -5 0
-10 -7 -10 -10 0 -10 -2 1 -9 11 -7 11 -10 -1 -17 -8 -5 -18 -27 -24 -49 -5
-22 -15 -39 -20 -38 -6 1 -10 -8 -9 -21 3 -19 -1 -22 -22 -18 -13 2 -22 10
-20 16 3 7 -1 20 -9 30 -7 11 -11 23 -7 29 3 6 1 7 -6 3 -6 -4 -9 -11 -6 -16
11 -18 -14 -19 -27 -1 -17 24 -49 21 -58 -4 -6 -16 -7 -16 -12 -3 -4 9 -1 22
5 29 10 11 9 11 -5 0 -10 -7 -15 -17 -13 -22 3 -4 -4 -13 -15 -19 -11 -6 -18
-15 -15 -20 3 -5 1 -11 -5 -15 -10 -6 -7 -46 6 -66 4 -7 3 -9 -4 -5 -6 3 -13
2 -17 -4 -3 -5 -1 -10 5 -10 6 0 8 -4 5 -10 -3 -5 0 -10 7 -10 10 0 10 -2 1
-8 -8 -5 -9 -13 -3 -22 13 -20 13 -33 0 -25 -5 3 -8 0 -5 -7 9 -24 12 -78 5
-73 -4 3 -10 -6 -12 -20 -3 -14 -1 -25 5 -25 5 0 5 -6 -2 -13 -6 -8 -8 -17 -4
-20 3 -4 1 -7 -6 -7 -9 0 -9 -5 0 -22 10 -18 9 -20 -6 -14 -13 5 -15 3 -9 -6
12 -17 10 -97 -2 -85 -4 4 -16 -3 -26 -16 -15 -17 -18 -31 -14 -60 5 -27 3
-36 -5 -32 -7 5 -6 -1 2 -16 16 -30 17 -50 4 -68 -7 -10 -7 -13 1 -8 7 4 11
-11 13 -41 4 -87 6 -102 12 -102 4 0 6 -16 4 -35 -1 -19 2 -35 7 -35 5 0 7 -4
3 -9 -3 -5 -1 -12 5 -16 7 -4 6 -13 -1 -27 -8 -15 -8 -19 0 -14 7 5 11 -3 11
-19 0 -18 -4 -24 -12 -19 -7 4 -6 -1 3 -11 13 -13 15 -25 9 -46 -6 -21 -5 -27
2 -23 8 5 9 1 5 -10 -4 -10 -3 -15 3 -11 9 6 15 -8 11 -29 -1 -5 7 -6 19 -3
11 3 23 0 27 -5 4 -7 1 -8 -8 -3 -11 7 -12 6 -2 -7 7 -8 10 -17 7 -21 -3 -3 0
-5 8 -4 7 2 13 7 13 12 0 6 -3 9 -7 8 -4 -2 -5 4 -2 11 4 12 9 11 25 -5 10
-10 25 -16 34 -13 8 4 15 1 15 -4 0 -6 -9 -9 -20 -7 -23 4 -36 -10 -18 -22 18
-11 39 -13 33 -3 -3 5 -1 11 5 15 9 6 14 -8 11 -28 -1 -5 3 -6 9 -2 6 3 8 11
5 16 -3 5 1 6 10 3 11 -5 13 -10 5 -19 -8 -10 -8 -15 1 -21 7 -4 9 -3 5 4 -9
15 28 34 41 21 8 -8 13 -7 18 2 6 8 4 10 -5 4 -9 -6 -11 -4 -5 5 5 8 4 11 -2
7 -5 -3 -10 0 -10 8 0 8 5 11 10 8 6 -4 8 1 4 11 -4 11 -3 15 4 11 6 -4 8 -13
5 -21 -3 -8 1 -17 10 -21 13 -5 13 -8 -3 -25 -12 -14 -13 -17 -2 -13 8 3 20
14 27 25 10 17 10 20 -5 21 -13 0 -12 3 6 10 13 5 26 7 29 4 3 -3 0 -5 -7 -5
-7 0 -10 -4 -6 -10 8 -13 35 -1 35 16 0 8 -8 14 -17 15 -15 0 -15 2 2 9 14 6
16 9 5 10 -8 2 -19 2 -23 1 -5 -1 -6 3 -2 9 4 7 12 7 25 0 24 -13 33 -13 25 0
-10 16 1 11 16 -7 12 -14 12 -16 0 -8 -10 5 -12 4 -7 -3 5 -8 1 -10 -11 -5
-15 6 -16 4 -5 -9 11 -14 10 -19 -8 -31 -19 -13 -19 -15 -4 -21 12 -4 25 1 38
16 l21 22 -23 -18 c-33 -28 -34 -16 -2 24 25 31 30 33 46 20 17 -13 17 -13 0
8 -15 17 -22 19 -28 10 -6 -9 -8 -7 -6 7 3 21 28 28 39 11 4 -5 6 13 4 40 -3
56 3 77 18 67 5 -3 7 -1 3 5 -3 6 -2 13 4 17 13 8 13 25 -1 25 -5 0 -8 -4 -4
-9 3 -5 0 -13 -6 -17 -9 -5 -10 0 -7 14 8 28 -7 28 -26 0 -9 -12 -16 -17 -16
-11 0 7 5 15 10 18 6 4 7 11 4 17 -4 7 -2 8 4 4 15 -9 15 -1 1 27 -9 20 -9 20
4 5 16 -20 39 -5 30 18 -3 8 0 14 7 14 6 0 8 -4 5 -10 -3 -5 -1 -10 5 -10 7 0
10 7 6 15 -3 8 -1 15 4 15 6 0 10 9 10 19 0 11 4 23 10 26 5 3 15 16 20 28 8
16 5 14 -10 -5 -33 -43 -45 -33 -13 11 15 22 31 37 35 35 4 -2 9 0 12 5 4 5
-1 8 -10 7 -8 -1 -19 -8 -23 -15 -6 -9 -11 -8 -21 4 -10 13 -15 13 -21 3 -7
-10 -11 -10 -21 1 -8 9 -9 11 -1 7 6 -3 14 -2 18 4 4 6 11 8 16 5 5 -4 9 -1 9
4 0 6 -6 11 -12 11 -10 0 -10 2 0 9 8 4 13 12 12 17 -1 5 3 10 9 12 6 2 11 -1
11 -8 0 -6 -4 -9 -8 -6 -5 3 -9 -1 -9 -9 0 -8 5 -15 10 -15 5 0 3 -8 -4 -17
-11 -15 -11 -16 1 -6 16 14 22 60 10 68 -5 3 -7 12 -3 20 3 8 0 15 -6 15 -6 0
-11 5 -11 11 0 5 5 7 12 3 8 -5 9 0 5 15 -4 17 -3 20 7 12 7 -6 16 -8 19 -4 4
3 7 1 7 -5 0 -7 -5 -12 -11 -12 -5 0 -7 -5 -4 -10 4 -6 11 -8 16 -4 5 3 9 2 8
-3 -4 -22 2 -34 14 -27 7 5 6 0 -3 -11 -12 -14 -12 -19 -2 -23 10 -3 10 -7 0
-20 -8 -9 -8 -13 -2 -9 12 7 29 -19 25 -37 -1 -4 3 -14 10 -22 6 -7 8 -18 4
-24 -3 -5 -3 -10 2 -10 4 0 13 -11 20 -25 8 -19 8 -24 0 -19 -7 3 -5 0 4 -8 9
-7 14 -19 11 -27 -3 -8 0 -11 7 -7 7 5 11 -1 11 -13 0 -12 4 -21 10 -21 5 0 9
-3 9 -7 -4 -23 2 -43 11 -38 6 3 10 -3 10 -14 0 -12 5 -21 11 -21 5 0 8 -4 5
-9 -3 -4 3 -19 14 -31 11 -12 22 -31 25 -41 4 -11 11 -19 16 -19 6 0 8 -4 5
-9 -3 -5 1 -11 9 -15 8 -3 15 -10 15 -16 0 -10 27 -45 66 -86 12 -13 19 -25
16 -28 -3 -3 0 -6 6 -6 7 0 12 -8 12 -17 0 -9 3 -14 6 -10 6 6 44 -23 41 -32
-2 -3 11 -19 27 -36 16 -16 26 -23 21 -15 -8 13 -7 13 8 1 9 -7 17 -20 17 -28
0 -10 6 -13 16 -9 8 3 12 2 9 -4 -3 -6 -2 -10 3 -10 4 0 22 -12 39 -27 68 -61
83 -73 83 -65 0 4 4 3 8 -3 15 -21 56 -50 48 -35 -5 9 -2 8 7 -2 8 -10 17 -15
20 -11 4 3 7 -1 7 -9 0 -9 12 -19 27 -23 15 -3 30 -11 34 -16 3 -6 15 -11 27
-12 11 0 18 -5 16 -9 -5 -7 11 -12 19 -5 2 1 11 -6 21 -16 10 -9 22 -15 27
-12 5 4 9 1 9 -4 0 -6 9 -11 20 -11 11 0 20 -5 20 -11 0 -5 5 -7 10 -4 6 4 17
1 25 -5 8 -6 20 -8 26 -4 8 5 9 3 4 -6 -6 -10 -3 -12 13 -8 12 3 21 3 20 -1
-2 -19 4 -22 19 -10 9 8 14 9 10 3 -8 -13 19 -27 34 -18 5 3 9 0 9 -7 0 -8 5
-7 17 2 9 8 14 9 10 2 -8 -13 27 -28 43 -18 5 3 10 1 10 -5 0 -7 7 -10 15 -6
8 3 15 2 15 -3 0 -5 11 -7 25 -6 14 2 25 -1 25 -5 0 -5 17 -7 37 -5 26 2 33 1
22 -7 -11 -7 -9 -9 9 -5 12 3 22 0 22 -5 0 -6 8 -4 17 3 15 12 16 12 8 -1 -4
-8 -15 -23 -23 -32 -8 -10 -12 -18 -7 -18 4 0 3 -6 -3 -13 -6 -7 -7 -18 -2
-26 4 -8 6 -20 3 -28 -3 -8 -1 -13 5 -11 5 2 11 -1 12 -7 1 -5 6 -15 11 -22 6
-7 6 -12 0 -15 -18 -5 -22 -75 -5 -82 8 -3 14 -11 14 -19 0 -8 11 -13 28 -13
16 1 26 -4 25 -12 -2 -6 2 -12 7 -12 6 0 10 4 10 10 0 5 8 2 18 -8 10 -9 14
-20 10 -23 -5 -3 3 -11 17 -17 14 -7 23 -17 20 -22 -3 -6 1 -7 9 -4 9 3 16 10
16 16 0 5 -5 6 -12 2 -7 -5 -8 -3 -3 6 5 8 4 11 -3 6 -15 -9 -23 7 -11 24 5
10 9 11 9 3 0 -7 7 -10 18 -7 13 5 14 4 3 -4 -9 -6 -10 -12 -2 -16 6 -4 16 2
23 14 7 11 17 20 22 20 4 0 3 -6 -3 -14 -8 -10 -9 -16 -1 -21 5 -3 10 -1 10 6
0 9 3 9 14 0 10 -8 16 -9 21 -1 3 5 1 10 -4 10 -6 0 -11 5 -11 11 0 8 5 8 15
-1 8 -7 12 -16 9 -21 -3 -5 -1 -9 5 -9 5 0 12 8 15 18 2 9 3 1 1 -20 -4 -27 0
-38 12 -42 9 -4 18 -4 21 -1 3 3 0 5 -7 5 -7 0 -9 5 -5 12 5 7 12 5 22 -8 12
-15 14 -16 9 -2 -3 9 -1 18 6 21 6 2 3 6 -7 10 -9 4 -15 3 -12 -1 3 -5 -1 -9
-9 -9 -19 0 -19 5 0 23 8 9 15 11 15 6 0 -20 31 -21 51 -1 12 12 19 15 18 7
-3 -26 1 -39 11 -33 6 4 8 10 5 15 -3 4 5 6 17 2 16 -4 19 -2 13 9 -5 8 -5 11
-1 7 5 -4 19 -3 32 2 13 5 23 6 23 2 -3 -19 2 -25 11 -12 7 10 8 3 5 -25 -3
-27 -2 -35 4 -25 5 8 7 18 4 24 -4 5 -1 6 6 1 7 -4 11 -16 8 -26 -3 -11 -1
-16 5 -13 5 3 8 15 5 25 -6 23 6 25 23 4 7 -8 16 -12 21 -9 5 3 9 -1 9 -8 0
-10 3 -9 9 2 6 8 8 17 5 21 -8 13 17 22 29 10 14 -14 37 -14 37 -1 0 6 -8 10
-17 10 -15 0 -15 2 -4 9 10 7 19 4 27 -7 16 -22 67 -25 59 -3 -3 8 -3 12 1 8
4 -4 14 -1 23 5 13 10 14 10 4 -2 -18 -20 -16 -35 2 -20 9 7 22 9 32 5 31 -13
47 -14 60 -3 10 8 13 7 15 -3 0 -8 2 -21 3 -29 1 -8 -3 -22 -9 -30 -6 -8 2 -4
17 9 19 17 27 20 27 10 1 -10 5 -9 15 5 8 10 12 24 8 30 -3 6 -3 8 2 4 4 -4
14 -3 22 4 7 6 16 8 20 4 3 -3 1 -6 -5 -6 -6 0 -9 -8 -6 -18 4 -12 3 -13 -3
-4 -7 9 -13 5 -21 -15 -11 -24 -10 -26 1 -11 8 10 17 15 20 12 3 -4 11 5 18
19 10 22 14 24 30 14 11 -7 19 -15 19 -20 0 -4 -5 -5 -12 -1 -7 5 -8 3 -3 -6
5 -9 4 -11 -4 -6 -6 4 -9 12 -6 17 4 5 1 9 -5 9 -7 0 -10 -7 -6 -15 3 -8 2
-15 -2 -15 -5 0 -17 -7 -28 -15 -17 -15 -16 -15 11 -2 17 8 36 12 43 10 6 -3
12 -1 12 4 0 5 9 9 20 10 13 1 18 -2 13 -10 -5 -9 -3 -9 8 -1 17 13 28 12 56
-4 14 -8 24 -9 28 -2 4 6 11 8 16 5 5 -4 18 1 30 9 12 8 27 12 34 10 7 -3 15
3 19 13 3 10 9 24 12 32 4 7 -2 5 -13 -5 -11 -11 -18 -22 -16 -26 2 -3 -5 -5
-14 -4 -10 2 -22 -2 -26 -8 -6 -7 -7 -4 -3 6 4 12 0 18 -12 19 -11 0 -12 2 -4
6 7 3 19 0 26 -6 7 -6 16 -8 19 -4 4 3 -1 12 -11 20 -15 13 -15 13 5 4 29 -15
33 -14 33 5 0 11 5 14 16 10 12 -4 14 -1 9 14 -4 12 -2 20 5 20 6 0 8 -5 5
-10 -3 -6 0 -10 8 -10 7 0 14 7 14 15 0 8 -4 15 -9 15 -4 0 -8 5 -8 12 0 6 9
3 20 -7 26 -23 25 -29 -5 -43 -25 -12 -34 -32 -14 -32 5 0 7 5 4 10 -3 6 1 10
9 10 23 0 31 -4 28 -13 -1 -5 3 -5 9 -2 7 5 7 11 1 17 -6 6 -8 17 -5 25 5 12
7 12 14 1 7 -10 9 -11 9 0 0 7 5 10 12 6 7 -5 8 -3 3 6 -6 10 -4 12 7 7 9 -3
20 -1 26 5 8 8 15 8 24 0 9 -7 19 -7 28 -2 21 14 36 12 22 -2 -7 -7 -12 -17
-12 -23 0 -5 4 -4 9 4 5 8 18 16 28 17 9 2 19 8 21 13 6 19 22 12 16 -6 -5
-17 -5 -17 6 -1 6 10 18 18 26 18 8 0 12 5 9 10 -5 8 -12 7 -23 -2 -15 -12
-16 -11 -3 5 9 12 17 14 26 7 12 -10 25 -4 25 12 0 5 -4 7 -9 3 -5 -3 -13 0
-17 6 -4 7 -3 9 4 5 5 -3 13 0 15 6 4 10 6 10 6 0 1 -7 5 -10 11 -7 6 3 7 -1
4 -10 -5 -11 -2 -14 10 -9 9 3 16 1 16 -6 0 -6 5 -8 10 -5 6 4 8 10 5 15 -12
19 18 21 38 2 24 -22 58 -23 65 -2 3 8 0 10 -8 5 -8 -5 -11 -4 -6 3 3 6 15 9
26 7 11 -2 20 1 20 7 0 7 7 3 15 -8 16 -22 19 -35 6 -31 -5 1 -10 -2 -11 -8
-1 -5 -6 -16 -12 -22 -6 -7 -6 -13 -2 -13 5 0 15 9 22 20 12 19 14 19 38 4 17
-12 24 -13 22 -4 -2 7 5 14 15 15 9 2 17 0 17 -5 0 -4 7 -11 16 -14 14 -5 15
-4 4 9 -12 15 0 22 14 7 4 -4 18 -7 29 -7 14 0 21 -5 19 -15 -2 -8 0 -12 4 -7
4 4 9 17 11 28 3 22 4 22 -46 1 -10 -4 -12 -1 -6 8 6 9 4 11 -4 5 -9 -5 -9 -1
1 14 14 23 24 26 33 11 9 -15 25 -12 25 6 0 8 -4 13 -8 10 -4 -2 -14 0 -22 5
-11 7 -9 8 8 6 25 -4 47 -28 32 -37 -5 -3 2 -10 15 -17 l24 -11 -15 30 c-9 17
-11 27 -6 24 6 -3 12 -1 14 6 3 7 7 5 11 -6 5 -12 3 -15 -6 -10 -8 5 -7 2 2
-9 7 -9 19 -17 25 -17 6 0 5 4 -3 9 -8 5 -9 11 -3 15 6 3 13 2 17 -4 3 -5 12
-10 18 -10 7 0 4 5 -6 11 -9 6 -15 14 -12 20 3 5 -1 6 -9 3 -18 -7 -23 21 -6
31 5 3 7 0 5 -7 -7 -17 50 -23 61 -7 4 7 0 9 -14 5 -11 -4 -23 -3 -26 2 -3 6
2 9 11 8 9 0 23 10 30 24 12 24 12 23 9 -17 -2 -24 1 -43 5 -43 5 0 9 8 9 18
1 15 2 15 13 2 10 -13 15 -11 38 12 15 15 24 30 20 34 -3 4 4 2 16 -5 32 -16
38 -14 18 9 -10 11 -15 20 -12 20 9 0 47 -42 47 -52 0 -4 -5 -8 -11 -8 -5 0
-7 5 -3 12 4 7 3 8 -4 4 -16 -10 -16 -11 16 -32 19 -12 23 -13 15 -3 -9 11 -9
19 -2 26 8 8 8 13 0 17 -6 4 -11 11 -11 17 0 5 8 1 18 -9 14 -13 16 -21 8 -32
-10 -13 -9 -13 7 -1 16 13 17 15 0 33 -14 15 -14 21 -3 31 10 9 11 9 6 -1 -4
-6 0 -19 9 -28 9 -9 14 -23 11 -31 -3 -8 -2 -12 3 -8 5 3 11 -1 13 -7 3 -7 5
1 5 19 0 33 17 63 37 63 8 0 8 -2 0 -8 -16 -10 -34 -48 -27 -56 3 -3 11 -6 17
-6 6 0 4 4 -4 10 -12 8 -12 10 3 16 9 3 14 10 11 15 -3 5 2 6 11 3 12 -5 13
-10 6 -17 -14 -14 -14 -27 -1 -27 5 0 9 6 7 12 -1 7 4 12 12 10 12 -3 12 0 2
12 -11 13 -10 17 3 22 10 4 15 12 12 19 -3 8 2 16 9 19 9 3 12 12 8 22 -4 12
-3 15 5 10 7 -4 12 -3 12 3 0 5 -6 12 -12 15 -10 5 -10 7 0 12 6 3 12 10 12
15 0 6 -4 7 -10 4 -5 -3 -10 1 -10 9 0 9 5 16 10 16 6 0 10 4 10 10 0 5 -3 9
-7 9 -23 -4 -34 3 -31 19 2 11 -1 18 -7 18 -17 -2 -14 -26 6 -39 17 -13 17
-15 2 -37 -13 -19 -14 -22 -2 -18 10 4 15 -1 15 -12 0 -18 -18 -22 -25 -5 -2
6 -11 15 -19 21 -12 9 -12 13 -2 19 9 6 11 4 5 -5 -5 -8 -3 -11 6 -8 8 3 16
13 17 23 3 11 0 15 -7 10 -7 -4 -10 -1 -9 7 2 7 -3 12 -9 11 -7 -2 -13 2 -13
7 0 6 4 10 9 10 6 0 8 9 6 20 -3 18 6 25 28 21 5 -1 6 3 2 9 -8 13 -45 -6 -45
-23 -1 -16 -20 18 -25 43 -3 14 1 17 13 13 9 -3 15 -4 12 -2 -26 22 -54 42
-48 35 4 -5 0 -15 -8 -23 -8 -8 -11 -19 -8 -25 4 -7 2 -8 -4 -4 -9 5 -9 13 -1
27 7 14 7 24 0 33 -6 7 -7 16 -3 20 4 4 2 7 -3 6 -6 -1 -12 -1 -15 0 -3 1 -17
4 -32 6 -22 4 -28 1 -28 -13 0 -15 2 -16 10 -3 13 21 30 0 20 -25 -6 -15 -9
-16 -9 -4 -1 17 -35 20 -59 5 -8 -5 -21 -1 -33 10 -17 16 -24 13 -20 -9 1 -5
-4 -5 -11 0 -7 4 -24 8 -38 8 -14 0 -31 4 -37 8 -8 5 -13 3 -13 -5 0 -8 -5 -6
-11 5 -8 13 -7 22 1 33 9 10 9 14 1 14 -6 0 -11 -4 -11 -10 0 -5 -5 -10 -11
-10 -5 0 -7 4 -4 10 3 6 -1 7 -9 4 -17 -6 -23 -26 -7 -21 5 1 9 -2 9 -7 0 -5
6 -12 14 -17 8 -5 3 -7 -15 -5 -16 1 -36 11 -45 21 -9 10 -12 15 -5 11 7 -4
17 3 23 16 9 19 9 21 -2 8 -17 -19 -48 -25 -48 -8 0 9 -3 9 -10 -2 -8 -13 -10
-13 -10 2 0 10 -8 22 -19 27 -16 9 -18 7 -16 -19 1 -17 -4 -35 -13 -42 -13
-11 -14 -11 -7 2 13 21 15 40 4 40 -6 0 -7 6 -3 13 4 6 3 9 -1 4 -5 -4 -19 0
-33 9 -15 10 -21 11 -17 3 6 -9 3 -10 -10 -5 -16 6 -16 4 -4 -11 13 -16 12
-17 -3 -5 -14 11 -18 10 -27 -5 -6 -10 -11 -13 -11 -6 0 6 4 15 10 18 6 3 10
11 10 18 0 8 -3 8 -12 -1 -7 -7 -16 -12 -22 -12 -6 0 -5 5 2 12 15 15 16 28 2
28 -5 0 -9 -5 -7 -11 1 -6 -4 -14 -12 -17 -8 -2 -11 0 -8 5 3 5 -10 8 -31 7
-34 -3 -36 -2 -18 11 11 8 15 15 9 15 -14 0 -34 -25 -26 -33 3 -4 1 -7 -7 -7
-10 0 -10 -3 1 -17 13 -15 12 -15 -8 -2 -16 10 -19 16 -10 22 8 6 6 7 -6 3
-10 -3 -20 -6 -23 -6 -2 0 -1 -8 3 -17 5 -15 3 -14 -13 2 -10 12 -15 16 -11 9
5 -7 3 -15 -4 -20 -7 -4 -9 -3 -6 3 4 6 0 13 -8 17 -8 3 -17 0 -21 -6 -5 -7
-2 -8 7 -4 8 4 3 -2 -11 -13 -28 -23 -36 -25 -44 -12 -3 5 2 8 11 7 9 0 17 5
19 12 1 7 0 8 -3 2 -8 -16 -23 -12 -24 8 0 13 -2 12 -9 -6 -5 -12 -7 -30 -4
-40 5 -14 4 -15 -5 -2 -9 13 -11 13 -11 0 0 -10 -5 -7 -16 8 -8 12 -12 28 -8
35 5 8 2 7 -9 -2 -17 -13 -17 -15 0 -35 10 -12 11 -16 4 -9 -7 6 -19 10 -25 9
-6 -2 -8 -1 -3 1 4 3 5 9 1 14 -3 5 -14 4 -26 -2 -13 -7 -23 -7 -27 -2 -3 6
-17 9 -31 8 -14 -1 -34 2 -45 8 -11 6 -31 12 -45 14 -24 3 -24 3 -6 -12 11 -8
15 -15 9 -15 -7 0 -15 5 -18 10 -4 6 -11 8 -16 5 -5 -4 -9 -2 -9 3 0 5 9 13
20 18 19 8 20 11 5 29 -15 20 -15 20 -9 0 5 -20 5 -20 -7 -1 -9 15 -9 21 -1
24 7 2 9 9 5 15 -3 7 -3 9 2 5 4 -4 14 -3 22 3 7 6 13 8 13 5 0 -4 9 -2 20 4
14 8 26 8 43 0 20 -10 21 -10 4 3 -12 10 -14 17 -8 22 6 3 11 3 11 -1 0 -4 9
1 19 10 19 18 18 46 -1 46 -7 0 -6 -5 1 -14 8 -10 8 -16 -3 -25 -11 -9 -15 -8
-20 4 -4 11 -2 14 6 9 8 -5 9 -2 5 9 -6 16 14 35 38 35 5 0 11 6 14 13 2 7 -1
9 -9 4 -9 -5 -11 -4 -6 4 4 6 11 9 15 7 4 -3 13 0 21 5 13 8 13 10 0 20 -13 9
-13 10 0 6 9 -2 15 -15 14 -30 -1 -15 3 -24 8 -21 4 3 6 10 3 15 -6 9 13 13
45 10 11 -1 11 1 -3 9 -9 6 -22 8 -29 4 -7 -4 -8 -3 -4 4 4 7 2 12 -4 12 -7 0
-10 6 -7 13 2 6 12 11 21 9 15 -3 16 0 5 20 -11 22 -11 22 13 -2 28 -29 26
-43 -5 -35 -17 5 -19 4 -7 -4 21 -15 28 -14 47 8 17 20 39 19 27 -1 -5 -7 -2
-8 5 -3 9 5 10 10 2 18 -6 6 -11 15 -11 21 0 6 5 5 12 -2 7 -7 17 -12 23 -12
5 0 2 5 -7 11 -10 5 -18 15 -18 21 0 6 7 5 18 -3 15 -12 16 -12 5 2 -7 9 -10
19 -6 23 10 10 15 48 5 42 -4 -2 -8 4 -8 15 0 18 2 18 12 5 12 -17 25 -21 23
-8 -4 25 2 33 22 27 18 -6 19 -4 10 13 -9 17 -8 19 10 15 16 -4 18 -8 7 -14
-7 -5 -8 -9 -3 -9 6 0 17 6 24 13 11 10 12 7 7 -13 -7 -25 -7 -25 6 -3 12 20
16 23 35 23 4 0 2 5 -5 12 -18 18 -15 33 3 18 13 -10 18 -11 28 -1 9 10 8 11
-8 5 -18 -7 -18 -6 -6 9 7 10 20 16 27 15 7 -2 13 2 13 7 0 6 -6 9 -14 7 -7
-1 -16 2 -19 7 -10 16 12 23 35 10 15 -8 19 -8 15 0 -4 6 -3 11 2 11 5 0 12 9
15 21 4 13 10 18 18 13 7 -4 10 -3 5 4 -3 5 0 13 6 15 10 4 10 6 1 6 -26 2
-28 1 -28 -11 0 -6 -6 -13 -13 -16 -8 -2 -10 2 -5 14 5 13 3 15 -8 9 -8 -5
-11 -5 -6 1 5 5 13 10 18 10 5 1 11 3 14 4 14 7 32 5 45 -4 13 -10 13 -9 1 6
-7 10 -17 15 -22 12 -5 -3 -9 0 -9 7 0 8 -4 8 -15 -1 -9 -7 -17 -11 -20 -9 -2
3 4 10 14 16 14 9 25 8 47 -3 16 -9 24 -10 17 -3 -6 6 -9 19 -5 28 5 13 3 14
-10 3 -13 -10 -18 -9 -29 5 -12 16 -12 17 2 6 12 -10 18 -10 28 0 9 9 14 9 20
-1 6 -10 10 -8 14 9 5 19 8 20 21 9 10 -7 16 -8 16 -2 0 6 -6 12 -12 15 -10 4
-10 7 0 18 7 8 12 9 12 2 0 -6 7 -14 16 -17 14 -5 15 -4 4 9 -10 12 -10 15 1
15 9 0 10 3 4 8 -6 4 -10 13 -9 20 1 6 2 21 3 32 0 11 5 20 11 20 5 0 7 -7 3
-16 -3 -9 6 -4 21 11 21 21 25 30 15 39 -9 8 -10 8 -4 -3 6 -10 4 -12 -5 -6
-9 6 -11 4 -5 -5 6 -9 4 -11 -5 -5 -9 6 -11 4 -5 -6 7 -12 6 -12 -6 -1 -12 11
-12 15 3 23 9 5 15 17 14 26 -2 10 -1 13 1 6 7 -19 28 -22 48 -7 10 8 13 14 6
14 -7 0 -9 5 -6 10 4 6 11 7 17 4 6 -4 8 -2 4 4 -3 5 0 13 6 15 10 4 10 6 0 6
-7 1 -10 6 -7 11 5 8 11 7 21 -1 10 -8 14 -8 14 0 0 6 -5 11 -12 11 -6 0 -3 6
7 14 11 8 23 12 27 10 4 -2 9 0 12 5 8 12 -13 8 -41 -7 -16 -9 -23 -9 -23 -2
0 6 -5 8 -10 5 -6 -3 -8 -18 -6 -31 4 -21 3 -24 -9 -14 -10 8 -12 18 -6 29 9
15 11 24 11 37 0 4 7 1 15 -6 12 -10 18 -10 26 -2 5 7 6 10 3 7 -7 -5 -34 19
-34 31 0 3 6 2 13 -3 21 -17 46 -23 52 -12 4 5 1 8 -6 7 -21 -5 -18 44 4 66
l19 21 -12 -25 c-7 -14 -9 -22 -5 -18 5 4 14 3 22 -3 8 -8 13 -8 13 -1 0 6 -6
13 -12 15 -10 4 -9 8 2 16 13 9 13 12 1 23 -8 7 -11 8 -8 2 7 -13 -30 -12 -41
2 -4 5 -3 6 2 2 5 -4 18 -2 29 4 16 8 23 7 34 -8 7 -10 13 -12 13 -5 0 7 5 9
13 5 6 -4 3 3 -8 16 l-20 23 25 -7 c14 -4 20 -4 14 1 -6 4 -10 16 -8 26 2 9 5
24 7 32 2 8 6 18 10 21 4 4 7 12 7 18 0 6 -4 5 -9 -2 -7 -11 -9 -11 -14 1 -4
11 1 14 18 12 15 -1 22 2 18 8 -4 6 0 8 10 4 11 -4 14 -2 10 9 -6 16 -23 19
-23 4 0 -5 -7 -10 -15 -10 -8 0 -15 5 -15 11 0 5 5 7 11 4 6 -4 10 -1 8 6 -3
26 1 39 12 39 8 0 7 -5 -1 -15 -11 -13 -10 -14 4 -9 10 4 15 13 12 20 -3 8 -1
14 4 14 6 0 10 9 10 21 0 11 5 17 10 14 6 -3 10 -1 10 4 0 6 -5 11 -10 11 -6
0 -10 6 -8 13 1 6 -4 23 -11 37 -8 14 -10 22 -6 18 5 -4 13 -3 20 2 8 7 12 5
12 -5 0 -8 -4 -12 -9 -9 -4 3 -8 0 -8 -5 0 -13 10 -14 30 -1 12 8 12 10 1 10
-8 0 -11 3 -8 7 4 3 2 11 -3 18 -6 8 -6 12 3 13 24 2 47 8 53 15 4 3 -6 4 -22
1 -28 -4 -28 -4 -9 12 19 15 19 15 1 12 -10 -2 -21 3 -23 10 -3 7 1 11 9 10 7
-2 14 4 14 12 1 8 3 18 4 23 6 19 6 33 -2 43 -9 13 -6 42 6 63 6 10 5 12 -2 7
-7 -4 -12 -2 -12 3 0 6 6 11 13 11 6 0 4 5 -5 11 -10 5 -18 15 -18 20 0 6 4 8
8 5 12 -7 8 25 -5 48 -9 16 -11 16 -16 2 -3 -8 -2 -18 3 -21 6 -4 10 -11 10
-17 0 -6 -9 -1 -20 12 -11 13 -20 30 -19 39 0 12 2 11 8 -3 7 -18 8 -18 14 -2
4 11 13 16 22 12 8 -3 17 0 21 6 4 6 3 8 -3 5 -6 -4 -23 5 -39 18 -16 14 -35
25 -41 25 -7 0 -13 4 -13 8 0 4 9 8 19 8 11 0 17 -5 14 -10 -4 -5 -1 -6 7 -1
9 6 11 4 5 -6 -5 -8 -5 -11 0 -7 4 4 15 2 24 -4 13 -10 14 -10 4 1 -6 7 -9 21
-6 30 4 14 3 14 -6 1 -10 -14 -16 -7 -12 14 1 5 -4 4 -11 -2 -19 -16 -46 25
-27 42 9 8 10 7 6 -7 -5 -12 -3 -16 5 -11 7 5 8 2 3 -7 -6 -11 -5 -12 5 -2 11
10 11 15 0 27 -7 9 -16 13 -21 10 -6 -3 -8 6 -5 20 3 14 0 29 -6 32 -6 4 -8 2
-5 -3 4 -6 0 -13 -8 -17 -8 -3 -17 0 -21 6 -4 6 -3 8 3 5 6 -4 13 2 16 13 3
13 0 20 -10 20 -8 0 -11 -4 -8 -10 3 -5 2 -10 -3 -10 -6 0 -13 7 -16 16 -4 10
-13 14 -24 10 -15 -5 -15 -4 -2 6 8 7 16 23 16 36 1 12 -1 20 -4 17 -9 -8 -32
17 -25 28 3 5 1 7 -4 4 -12 -7 -36 16 -27 26 3 3 -3 3 -15 0 -20 -5 -26 5 -22
30 1 5 -3 6 -8 3 -5 -4 -11 -1 -13 6 -3 8 -7 6 -11 -5 -3 -9 -2 -16 3 -14 6 1
20 -14 31 -33 12 -19 14 -27 6 -18 -7 10 -17 14 -21 10 -4 -4 -7 -2 -6 3 4 19
0 38 -6 32 -4 -3 -19 0 -34 8 -21 11 -30 11 -40 2 -10 -9 -11 -9 -6 1 4 6 2
12 -4 12 -6 0 -9 4 -6 8 3 5 0 9 -7 9 -7 0 -26 3 -43 7 -33 6 -66 -15 -44 -29
5 -3 10 1 10 9 0 21 16 21 24 0 3 -8 2 -12 -3 -9 -5 3 -13 0 -16 -5 -5 -8 -13
-6 -24 4 -10 9 -20 13 -24 10 -3 -4 -13 1 -22 10 -9 9 -12 16 -7 16 5 0 12 -3
16 -7 3 -4 13 -8 20 -9 10 -1 11 3 2 22 -7 14 -13 18 -16 11 -3 -7 -11 -12
-17 -13 -29 -2 -34 -4 -29 -13 3 -5 -2 -15 -12 -22 -15 -13 -16 -12 -4 3 8 10
9 19 3 22 -5 3 -12 0 -14 -6 -4 -10 -6 -9 -6 1 -1 11 -4 11 -17 1 -12 -11 -15
-11 -12 0 2 7 -3 15 -11 18 -8 2 -11 0 -8 -5 3 -5 0 -10 -8 -10 -8 0 -12 4 -9
8 2 4 -5 7 -16 6 -13 -1 -19 -6 -15 -15 3 -7 0 -10 -6 -7 -6 4 -8 13 -5 21 3
7 1 16 -3 19 -5 3 -12 -2 -15 -11 -4 -11 -12 -14 -24 -9 -9 4 -22 8 -28 9 -6
1 -22 14 -36 29 -14 15 -28 24 -32 20 -4 -4 -4 0 0 10 3 10 1 17 -6 17 -15 0
-41 26 -33 34 4 3 -1 6 -10 6 -10 0 -17 4 -17 10 0 12 -57 70 -69 70 -5 0 -13
9 -16 21 -4 11 -9 18 -12 15 -10 -9 -33 15 -26 27 3 5 1 7 -4 4 -6 -4 -14 0
-17 9 -4 9 -9 14 -13 10 -3 -3 -12 3 -20 14 -8 11 -21 20 -29 20 -8 0 -14 5
-14 10 0 6 -8 14 -17 17 -9 4 -25 14 -35 22 -10 9 -21 15 -24 13 -3 -2 -12 5
-21 15 -8 10 -12 12 -8 3 4 -8 -4 -2 -19 14 -14 16 -26 24 -26 17 0 -6 -12 0
-27 14 -16 14 -34 23 -40 20 -7 -2 -13 0 -13 5 0 6 -6 10 -13 10 -7 0 -18 9
-25 21 -11 17 -16 19 -29 7 -14 -11 -15 -11 -8 1 6 11 4 13 -10 7 -15 -5 -16
-4 -5 9 7 9 9 15 4 14 -27 -5 -43 3 -41 21 1 19 25 36 35 25 3 -3 1 -5 -5 -5
-6 0 -13 -6 -16 -14 -4 -11 2 -14 24 -14 20 1 26 4 17 9 -18 11 -17 31 2 46 8
7 10 13 5 13 -6 0 -16 -5 -23 -12 -7 -7 -12 -8 -12 -4 0 5 -8 2 -17 -5 -16
-13 -17 -12 -4 3 7 10 17 15 22 12 5 -3 9 1 9 10 0 8 3 22 7 32 5 13 3 15 -8
9 -11 -7 -11 -5 1 10 14 17 13 18 -2 12 -10 -3 -20 -1 -24 6 -4 7 -4 9 1 5 13
-12 45 11 39 27 -4 8 -1 15 4 15 6 0 9 -8 7 -18 -2 -10 6 -24 17 -31 19 -12
20 -12 5 10 -15 20 -14 24 10 55 14 19 30 31 36 27 6 -3 7 -1 3 6 -6 9 -11 9
-24 -1 -13 -11 -15 -10 -9 4 7 20 -9 33 -38 30 -16 -1 -16 0 4 8 17 7 28 7 40
-2 13 -10 14 -10 4 2 -7 8 -13 24 -13 37 0 17 -4 21 -17 17 -15 -5 -15 -4 -3
4 8 6 18 8 24 5 5 -3 6 -1 2 5 -4 7 0 12 11 13 14 0 15 2 3 7 -8 4 -16 15 -18
26 -2 10 0 16 5 13 5 -3 9 3 9 13 0 11 -2 17 -5 15 -2 -3 -10 0 -18 6 -10 9
-11 15 -2 26 7 7 9 16 5 20 -3 3 -6 1 -6 -5 0 -6 -8 -9 -17 -6 -11 4 -14 3 -7
-3 6 -4 10 -16 8 -26 -1 -9 2 -15 7 -12 5 4 6 -2 3 -12 -5 -15 -4 -16 5 -3 7
9 11 10 11 3 0 -16 -17 -26 -25 -13 -3 5 -8 18 -10 27 -8 42 -11 49 -30 66
-17 16 -20 16 -25 3 -4 -12 -7 -10 -16 8 -8 17 -8 23 2 23 7 0 10 -5 7 -10 -3
-6 -1 -7 4 -4 6 4 22 -2 36 -13 28 -23 37 -25 37 -9 0 5 -5 7 -10 4 -6 -3 -13
1 -16 9 -3 9 -11 16 -17 16 -6 0 -18 7 -27 15 -15 14 -18 14 -30 0z m-90 -45
c12 -7 10 -9 -8 -7 -12 0 -22 5 -22 9 0 11 12 10 30 -2z m145 -19 c3 -5 2 -12
-3 -15 -5 -3 -9 1 -9 9 0 17 3 19 12 6z m-1748 -44 c0 -7 -8 -13 -18 -13 -13
0 -15 3 -7 13 6 7 14 13 18 13 3 0 7 -6 7 -13z m1770 -62 c0 -8 -4 -12 -9 -9
-5 3 -6 10 -3 15 9 13 12 11 12 -6z m40 -1 c0 -7 -5 -15 -12 -17 -6 -3 -11 3
-11 12 0 10 5 18 11 18 7 0 12 -6 12 -13z m-1806 -16 c8 -7 22 -22 29 -33 14
-18 13 -19 -1 -8 -9 7 -19 10 -23 6 -4 -4 -4 0 -1 8 4 10 -2 20 -17 27 -13 6
-18 11 -12 11 5 1 17 -5 25 -11z m1769 -38 c0 -5 -2 -10 -4 -10 -3 0 -8 5 -11
10 -3 6 -1 10 4 10 6 0 11 -4 11 -10z m30 -75 c-8 -9 -8 -14 0 -17 7 -2 5 -11
-5 -23 -9 -11 -13 -14 -9 -6 5 11 3 13 -12 8 -16 -6 -17 -5 -4 6 19 16 24 37
8 37 -9 0 -8 3 2 9 19 13 34 3 20 -14z m-35 -5 c3 -5 1 -10 -4 -10 -6 0 -11 5
-11 10 0 6 2 10 4 10 3 0 8 -4 11 -10z m-18 -35 c0 -8 -4 -12 -9 -9 -5 3 -6
10 -3 15 9 13 12 11 12 -6z m-1701 -21 c1 -9 0 -13 -4 -10 -3 4 -7 14 -8 22
-1 9 0 13 4 10 3 -4 7 -14 8 -22z m54 -79 c-7 -8 -17 -15 -22 -15 -11 0 14 29
26 30 5 0 3 -7 -4 -15z m1627 -17 c-3 -8 -6 -5 -6 6 -1 11 2 17 5 13 3 -3 4
-12 1 -19z m-817 2 c0 -5 -5 -10 -11 -10 -5 0 -7 5 -4 10 3 6 8 10 11 10 2 0
4 -4 4 -10z m1886 -672 c4 4 2 -2 -6 -13 -21 -30 -24 -32 -17 -14 3 9 0 23 -6
30 -10 11 -9 11 4 1 9 -6 20 -8 25 -4z m-133 -11 c3 -8 -1 -14 -8 -14 -7 0
-11 6 -8 14 3 7 6 13 8 13 2 0 5 -6 8 -13z m201 -33 c5 -13 4 -14 -7 -6 -8 7
-18 8 -22 4 -5 -4 -5 -1 -1 6 10 17 23 15 30 -4z m110 -33 c13 -14 14 -21 5
-27 -8 -4 -10 -3 -5 4 4 7 3 12 -2 12 -6 0 -12 7 -16 15 -7 20 -3 19 18 -4z
m36 -46 c0 -8 -4 -15 -8 -15 -5 0 -9 7 -9 15 0 8 4 15 9 15 4 0 8 -7 8 -15z
m20 -75 c0 -5 -5 -10 -11 -10 -5 0 -7 5 -4 10 3 6 8 10 11 10 2 0 4 -4 4 -10z
m90 -162 c0 -4 -4 -8 -9 -8 -6 0 -12 4 -15 8 -3 5 1 9 9 9 8 0 15 -4 15 -9z
m-10 -32 c0 -2 -7 -7 -16 -10 -8 -3 -12 -2 -9 4 6 10 25 14 25 6z m47 -98 c-7
-4 -16 -8 -22 -8 -5 0 -4 4 4 9 7 5 10 14 7 20 -4 6 -12 9 -17 6 -5 -3 -6 1
-3 9 5 13 9 12 24 -7 13 -16 15 -24 7 -29z m9 -35 c-2 -11 -13 -18 -29 -18
-14 -1 -24 2 -21 7 3 4 10 6 15 3 5 -4 12 1 15 9 8 21 23 20 20 -1z m10 -70
c-3 -21 -37 -24 -44 -4 -3 10 0 12 12 8 19 -8 21 4 4 22 -11 11 -9 11 9 2 12
-6 20 -19 19 -28z m-4086 -15 c0 -4 -4 -8 -9 -8 -6 0 -12 4 -15 8 -3 5 1 9 9
9 8 0 15 -4 15 -9z m20 -28 c0 -5 -2 -10 -4 -10 -3 0 -8 5 -11 10 -3 6 -1 10
4 10 6 0 11 -4 11 -10z m4060 -1 c0 -5 -4 -8 -9 -4 -13 8 -24 -12 -14 -27 13
-21 12 -37 -2 -31 -15 5 -16 42 -2 61 12 15 27 16 27 1z m-4020 -9 c0 -5 -4
-10 -10 -10 -5 0 -10 5 -10 10 0 6 5 10 10 10 6 0 10 -4 10 -10z m3980 -70 c0
-5 -4 -10 -10 -10 -5 0 -10 5 -10 10 0 6 5 10 10 10 6 0 10 -4 10 -10z m-4
-79 c0 -11 -6 -18 -15 -16 -22 3 -25 23 -4 28 10 3 18 5 18 6 1 0 1 -7 1 -18z
m-59 -26 c0 -8 -4 -12 -9 -9 -5 3 -6 10 -3 15 9 13 12 11 12 -6z m53 -14 c0
-12 -20 -25 -27 -18 -7 7 6 27 18 27 5 0 9 -4 9 -9z m-55 -60 c-9 -8 -36 -10
-30 -2 2 4 11 8 20 8 8 0 13 -3 10 -6z m-6 -82 c-11 -7 -11 -9 1 -9 10 0 11
-3 4 -8 -6 -4 -10 -15 -8 -25 1 -9 -1 -15 -6 -12 -13 8 -19 -22 -7 -36 7 -7
-2 -2 -19 12 -17 13 -30 26 -28 28 2 2 10 -2 19 -9 18 -15 20 0 3 20 -11 12
-10 12 3 2 22 -16 33 -2 11 15 -16 12 -16 13 1 7 10 -4 17 -3 16 2 -4 22 2 35
12 28 8 -4 7 -9 -2 -15z m-39 5 c0 -8 -19 -13 -24 -6 -3 5 1 9 9 9 8 0 15 -2
15 -3z m-15 -84 c3 -5 1 -10 -4 -10 -6 0 -11 5 -11 10 0 6 2 10 4 10 3 0 8 -4
11 -10z m-35 -54 c0 -3 -4 -8 -10 -11 -5 -3 -10 -1 -10 4 0 6 5 11 10 11 6 0
10 -2 10 -4z m-3500 -30 c0 -2 -8 -10 -17 -17 -16 -13 -17 -12 -4 4 13 16 21
21 21 13z m3487 -18 c-3 -8 -6 -5 -6 6 -1 11 2 17 5 13 3 -3 4 -12 1 -19z
m-3472 -48 c3 -6 -1 -7 -9 -4 -18 7 -21 14 -7 14 6 0 13 -4 16 -10z m-35 -10
c0 -5 -5 -10 -11 -10 -5 0 -7 5 -4 10 3 6 8 10 11 10 2 0 4 -4 4 -10z m3458
-77 c-6 -7 -7 -13 -4 -13 4 0 4 -5 1 -10 -4 -6 -11 -7 -17 -4 -6 4 -6 10 1 17
15 15 14 27 -1 23 -7 -1 -10 -1 -5 1 4 3 4 9 1 15 -3 5 3 4 14 -3 16 -10 18
-16 10 -26z m-3465 -4 c-8 -8 -13 -7 -18 2 -6 8 -4 10 5 4 10 -6 12 -4 6 11
-6 15 -5 17 5 7 9 -10 10 -16 2 -24z m3382 -19 c3 -5 1 -10 -4 -10 -6 0 -11 5
-11 10 0 6 2 10 4 10 3 0 8 -4 11 -10z m0 -41 c-3 -12 -7 -24 -10 -27 -3 -3
-3 5 -1 19 6 30 5 29 10 29 3 0 3 -10 1 -21z m-3386 -65 c-12 -13 -25 -21 -28
-18 -3 3 1 9 9 14 8 6 11 10 6 10 -5 0 -3 7 4 15 7 8 17 12 22 9 5 -3 -1 -17
-13 -30z m3377 -3 c0 -16 -4 -27 -7 -25 -4 2 -16 -7 -26 -21 -17 -24 -19 -25
-38 -10 -15 13 -16 15 -3 12 9 -3 24 1 35 8 16 13 16 14 2 15 -9 0 -20 7 -23
16 -6 15 -4 15 10 3 14 -12 19 -11 33 8 9 12 17 22 17 23 1 0 1 -13 0 -29z
m-3376 -50 c0 -12 -20 -25 -27 -18 -7 7 6 27 18 27 5 0 9 -4 9 -9z m-45 -21
c3 -6 -1 -7 -9 -4 -18 7 -21 14 -7 14 6 0 13 -4 16 -10z m3290 0 c3 -5 1 -10
-4 -10 -6 0 -11 5 -11 10 0 6 2 10 4 10 3 0 8 -4 11 -10z m-35 -96 c0 -8 -19
-13 -24 -6 -3 5 1 9 9 9 8 0 15 -2 15 -3z m-3260 -45 c-13 -23 -17 -24 -17 -4
0 8 4 15 9 15 5 0 6 5 2 12 -4 7 -3 8 4 4 9 -5 9 -13 2 -27z m3260 16 c-7 -9
-15 -13 -19 -10 -3 3 1 10 9 15 21 14 24 12 10 -5z m-38 -22 c-6 -3 -9 -10 -6
-15 4 -7 2 -8 -5 -4 -9 6 -9 11 0 22 6 8 15 12 18 8 3 -4 0 -9 -7 -11z m63 7
c-3 -5 -11 -10 -16 -10 -6 0 -7 5 -4 10 3 6 11 10 16 10 6 0 7 -4 4 -10z
m-3302 -46 c-17 -13 -17 -14 0 -8 18 7 22 -3 8 -24 -6 -11 -10 -10 -16 5 -15
35 -12 50 7 45 18 -4 18 -5 1 -18z m3194 4 c0 -13 -1 -17 -4 -10 -4 10 -8 10
-21 0 -12 -9 -11 -6 2 10 11 12 20 22 20 22 1 0 2 -10 3 -22z m51 0 c14 5 15
4 2 -10 -9 -9 -18 -12 -21 -6 -3 5 -9 2 -13 -7 -3 -10 -2 -23 4 -30 9 -11 -2
-12 -53 -6 -4 1 -2 7 5 15 8 9 15 10 19 4 7 -11 25 30 20 47 -1 6 3 5 10 -2 6
-6 19 -9 27 -5z m-3268 -37 c0 -6 -4 -12 -8 -15 -5 -3 -9 1 -9 9 0 8 4 15 9
15 4 0 8 -4 8 -9z m3164 1 c3 -5 -1 -9 -9 -9 -8 0 -12 4 -9 9 3 4 7 8 9 8 2 0
6 -4 9 -8z m-3390 -52 c3 -3 -5 -6 -19 -5 -13 0 -26 2 -29 5 -3 3 5 6 19 5 13
0 26 -2 29 -5z m52 -30 c5 0 10 -6 12 -14 2 -9 -2 -16 -8 -16 -7 0 -9 7 -5 18
5 13 3 14 -6 5 -12 -12 -39 -7 -39 9 0 5 5 6 10 3 6 -3 10 0 10 7 0 10 2 10 9
0 4 -8 12 -13 17 -12z m91 14 c-3 -3 -12 -4 -19 -1 -8 3 -5 6 6 6 11 1 17 -2
13 -5z m-157 -30 c0 -8 -19 -13 -24 -6 -3 5 1 9 9 9 8 0 15 -2 15 -3z m3340
-19 c0 -13 -25 -55 -33 -55 -5 0 -3 8 4 17 12 15 12 16 -4 10 -11 -4 -16 -3
-12 3 3 6 13 10 21 10 8 0 12 5 9 10 -3 6 -1 10 4 10 6 0 11 -2 11 -5z m-55
-55 c-3 -5 1 -10 10 -10 9 0 13 -5 10 -10 -5 -8 -11 -7 -21 1 -12 10 -11 29 2
29 3 0 2 -4 -1 -10z m-190 -149 c-3 -5 -1 -12 5 -16 6 -4 8 -11 4 -16 -3 -5
-10 -7 -15 -4 -5 4 -9 1 -9 -6 0 -7 -3 -10 -6 -6 -3 3 -2 12 2 19 5 7 9 16 10
21 3 15 4 17 10 17 3 0 3 -4 -1 -9z m-97 -133 c-2 -6 -10 -13 -16 -14 -7 -1
-8 0 -2 3 5 2 8 9 4 14 -3 5 0 9 6 9 7 0 10 -5 8 -12z m485 -15 c-6 -16 -5
-16 10 -5 17 15 37 9 37 -11 0 -7 -4 -6 -10 3 -9 13 -11 13 -19 1 -8 -12 -12
-13 -26 -1 -13 10 -13 15 -3 21 18 12 18 11 11 -8z m158 -18 c5 4 6 -1 3 -9
-8 -20 -24 -11 -23 12 0 11 2 12 6 4 2 -6 9 -10 14 -7z m72 -16 c3 -12 10 -18
16 -14 6 3 11 1 11 -5 0 -7 -6 -10 -14 -7 -8 3 -17 2 -20 -4 -2 -5 -3 -4 -2 3
2 7 -1 21 -6 31 -5 10 -5 17 0 17 6 0 12 -9 15 -21z m412 -58 c-14 -14 -30 -6
-30 15 0 21 1 21 18 7 9 -9 15 -19 12 -22z m38 -26 c-3 -9 -8 -14 -10 -11 -3
3 -2 9 2 15 9 16 15 13 8 -4z m-6 -47 c2 -17 0 -19 -7 -8 -5 8 -6 18 -4 22 8
12 10 10 11 -14z m58 -148 c3 -5 1 -10 -4 -10 -6 0 -11 5 -11 10 0 6 2 10 4
10 3 0 8 -4 11 -10z m39 -19 c3 -5 -1 -12 -10 -15 -8 -3 -13 -10 -10 -15 3 -5
-2 -15 -11 -22 -12 -10 -15 -10 -9 -1 5 8 -1 16 -16 22 -22 10 -22 10 -1 6 23
-4 48 15 36 27 -3 4 -1 7 5 7 6 0 13 -4 16 -9z m-110 -57 c3 -8 2 -12 -4 -9
-6 3 -10 10 -10 16 0 14 7 11 14 -7z m-152 -18 c5 4 2 -5 -7 -20 -13 -19 -21
-23 -30 -16 -6 5 -16 6 -20 2 -5 -4 -5 -1 -1 6 4 7 11 10 16 7 5 -3 12 5 16
17 4 13 9 18 11 10 3 -6 9 -9 15 -6z m-177 -46 c-3 -5 -12 -10 -18 -10 -7 0
-6 4 3 10 19 12 23 12 15 0z m-202 -27 c-5 -12 -3 -14 7 -8 8 5 11 4 7 -2 -4
-6 1 -14 10 -17 12 -5 14 -9 5 -18 -9 -9 -15 -9 -24 0 -7 7 -8 12 -4 12 5 0 3
7 -4 15 -6 8 -9 19 -5 25 10 16 15 12 8 -7z m65 -4 c-21 -18 -22 -19 -3 -17
11 2 26 10 34 18 10 11 10 9 -1 -9 -18 -30 -41 -34 -56 -10 -10 15 -9 19 0 17
7 -2 12 2 11 7 -1 6 7 12 18 12 18 2 18 0 -3 -18z m-387 -12 c-8 -8 -14 -7
-23 2 -11 10 -9 11 6 5 15 -6 17 -4 11 6 -6 9 -4 11 4 5 9 -5 10 -10 2 -18z
m33 -11 c-3 -6 -16 -19 -30 -29 -21 -16 -25 -16 -30 -3 -5 14 -8 14 -29 0 -19
-12 -24 -12 -34 -1 -18 22 13 44 36 26 15 -12 16 -12 10 6 -7 19 -6 19 7 2 21
-27 69 -9 59 23 -4 13 -3 13 5 1 6 -8 8 -19 6 -25z m180 19 c3 -8 1 -15 -4
-15 -6 0 -10 7 -10 15 0 8 2 15 4 15 2 0 6 -7 10 -15z m-329 -41 c0 -10 -7
-19 -15 -20 -8 -1 -17 -2 -20 -3 -3 -2 -12 -4 -21 -6 -19 -3 -44 31 -29 40 6
4 9 1 8 -6 -2 -6 3 -14 10 -16 8 -3 10 2 6 14 -5 17 -5 17 6 0 9 -14 15 -15
32 -6 17 9 18 13 7 21 -12 8 -11 9 1 5 8 -2 15 -12 15 -23z m-1290 -44 c3 -5
1 -10 -4 -10 -6 0 -11 5 -11 10 0 6 2 10 4 10 3 0 8 -4 11 -10z m1092 -5 c0
-8 -4 -12 -9 -9 -5 3 -6 10 -3 15 9 13 12 11 12 -6z m-857 -25 c0 -5 -5 -10
-11 -10 -5 0 -7 5 -4 10 3 6 8 10 11 10 2 0 4 -4 4 -10z m250 -10 c-6 -11 -8
-24 -5 -29 3 -5 -2 -8 -11 -7 -9 1 -20 10 -25 19 -6 10 -16 14 -27 10 -9 -3
-14 -3 -11 1 10 11 50 16 44 5 -4 -5 0 -9 8 -9 8 0 17 7 21 15 3 8 8 15 11 15
3 0 1 -9 -5 -20z m120 -2 c0 -4 -6 -8 -14 -8 -8 0 -17 4 -20 8 -2 4 4 8 15 8
10 0 19 -4 19 -8z m125 2 c3 -5 1 -10 -4 -10 -6 0 -11 5 -11 10 0 6 2 10 4 10
3 0 8 -4 11 -10z m71 -48 c-3 -3 -6 1 -6 8 0 9 -5 7 -16 -6 -15 -18 -15 -18
-5 3 14 27 14 36 1 28 -6 -4 -7 1 -3 11 5 14 8 12 20 -11 8 -15 12 -29 9 -33z
m38 46 c-3 -4 -12 -8 -20 -8 -8 0 -14 4 -14 8 0 4 9 8 19 8 11 0 17 -4 15 -8z
m134 -30 c4 2 8 -2 10 -10 2 -9 0 -8 -7 2 -10 13 -11 13 -11 0 0 -13 -1 -13
-10 0 -9 13 -11 13 -21 0 -8 -12 -9 -10 -4 9 4 14 3 21 -2 18 -5 -4 -10 1 -10
9 0 10 7 8 24 -8 14 -13 28 -22 31 -20z m2 32 c0 -5 -5 -10 -11 -10 -5 0 -7 5
-4 10 3 6 8 10 11 10 2 0 4 -4 4 -10z m73 -5 c-3 -9 -8 -14 -10 -11 -3 3 -2 9
2 15 9 16 15 13 8 -4z m-31 -27 c-3 -12 1 -18 12 -18 9 0 16 5 16 10 0 6 5 10
11 10 5 0 8 -4 5 -9 -4 -5 -3 -11 1 -14 5 -2 3 -2 -4 -1 -7 2 -15 -1 -18 -6
-9 -14 -41 9 -42 29 -1 10 4 18 11 18 8 0 11 -8 8 -19z"/>
<path d="M3817 774 c-11 -11 3 -24 18 -18 8 4 12 10 9 15 -6 11 -18 12 -27 3z"/>
<path d="M1347 4599 c7 -7 15 -10 18 -7 3 3 -2 9 -12 12 -14 6 -15 5 -6 -5z"/>
<path d="M1396 4595 c4 -8 8 -15 10 -15 2 0 4 7 4 15 0 8 -4 15 -10 15 -5 0
-7 -7 -4 -15z"/>
<path d="M3056 4602 c-3 -5 1 -9 9 -9 8 0 12 4 9 9 -3 4 -7 8 -9 8 -2 0 -6 -4
-9 -8z"/>
<path d="M2895 4506 c18 -25 44 -30 40 -7 -1 9 -10 15 -20 13 -9 -2 -15 1 -11
6 3 5 -1 9 -9 9 -12 0 -12 -3 0 -21z"/>
<path d="M1195 4509 c-4 -6 -5 -12 -2 -15 2 -3 7 2 10 11 7 17 1 20 -8 4z"/>
<path d="M1205 4480 c-4 -6 -11 -7 -17 -4 -7 4 -8 2 -4 -5 6 -9 12 -9 24 1 10
7 19 14 21 15 2 2 -1 3 -7 3 -6 0 -14 -5 -17 -10z"/>
<path d="M1505 4461 c-3 -5 -2 -12 3 -15 5 -3 9 1 9 9 0 17 -3 19 -12 6z"/>
<path d="M1531 4434 c0 -11 3 -14 6 -6 3 7 2 16 -1 19 -3 4 -6 -2 -5 -13z"/>
<path d="M3350 4441 c0 -6 4 -13 10 -16 6 -3 7 1 4 9 -7 18 -14 21 -14 7z"/>
<path d="M3326 4393 c-6 -14 -5 -15 5 -6 7 7 10 15 7 18 -3 3 -9 -2 -12 -12z"/>
<path d="M1580 4380 c-9 -6 -10 -10 -3 -10 6 0 15 5 18 10 8 12 4 12 -15 0z"/>
<path d="M3327 4359 c7 -7 15 -10 18 -7 3 3 -2 9 -12 12 -14 6 -15 5 -6 -5z"/>
<path d="M1588 4253 c-24 -6 -23 -19 0 -19 10 0 19 6 19 13 0 7 -1 12 -1 12
-1 -1 -9 -3 -18 -6z"/>
<path d="M3311 4247 c-8 -10 -7 -14 2 -14 8 0 14 6 14 14 0 7 -1 13 -2 13 -2
0 -8 -6 -14 -13z"/>
<path d="M3264 4194 c2 -10 8 -20 14 -22 17 -5 15 13 -2 27 -12 10 -14 9 -12
-5z"/>
<path d="M3260 4156 c0 -2 7 -7 16 -10 8 -3 12 -2 9 4 -6 10 -25 14 -25 6z"/>
<path d="M1650 4119 c0 -5 5 -7 10 -4 6 3 10 8 10 11 0 2 -4 4 -10 4 -5 0 -10
-5 -10 -11z"/>
<path d="M1629 4105 c-1 -3 -2 -8 -3 -12 -1 -5 -5 -13 -9 -20 -4 -6 -3 -14 3
-18 5 -3 10 0 11 7 0 7 2 21 4 31 3 15 -3 26 -6 12z"/>
<path d="M1635 4009 c-6 -9 24 -34 32 -25 3 3 1 6 -7 6 -9 0 -10 3 -1 13 8 10
7 14 -5 14 -8 0 -17 -4 -19 -8z"/>
<path d="M3901 3560 c-2 -29 26 -46 45 -27 14 14 26 7 14 -8 -7 -9 -8 -15 -2
-15 8 0 22 22 22 35 0 8 -41 12 -46 4 -9 -15 -22 -10 -27 9 -3 12 -5 13 -6 2z"/>
<path d="M4011 3530 c-9 -5 -10 -10 -2 -14 6 -4 11 -2 11 5 0 8 4 8 15 -1 9
-7 15 -8 15 -2 0 14 -24 22 -39 12z"/>
<path d="M4069 3517 c12 -15 55 -16 68 -3 4 5 2 6 -4 2 -8 -4 -13 -2 -13 6 0
9 -3 9 -10 -2 -9 -13 -10 -13 -10 0 0 13 -1 13 -10 0 -6 -10 -10 -11 -10 -2 0
6 -5 12 -11 12 -8 0 -9 -4 0 -13z"/>
<path d="M4246 3522 c-3 -5 1 -9 9 -9 8 0 12 4 9 9 -3 4 -7 8 -9 8 -2 0 -6 -4
-9 -8z"/>
<path d="M4337 3503 c-4 -3 -7 -13 -7 -22 1 -13 3 -13 11 2 11 19 8 33 -4 20z"/>
<path d="M4350 3475 c0 -7 30 -13 34 -7 3 4 -4 9 -15 9 -10 1 -19 0 -19 -2z"/>
<path d="M4446 3458 c3 -5 10 -6 15 -3 13 9 11 12 -6 12 -8 0 -12 -4 -9 -9z"/>
<path d="M4510 3400 c0 -5 5 -10 11 -10 5 0 7 5 4 10 -3 6 -8 10 -11 10 -2 0
-4 -4 -4 -10z"/>
<path d="M4595 3329 c-4 -6 -5 -12 -2 -15 2 -3 7 2 10 11 7 17 1 20 -8 4z"/>
<path d="M4535 3320 c3 -5 12 -7 20 -3 21 7 19 13 -6 13 -11 0 -18 -4 -14 -10z"/>
<path d="M4690 3020 c0 -5 5 -10 11 -10 5 0 7 5 4 10 -3 6 -8 10 -11 10 -2 0
-4 -4 -4 -10z"/>
<path d="M4701 2956 c-9 -11 -9 -16 1 -22 7 -4 10 -4 6 1 -4 4 -3 14 3 22 6 7
9 13 6 13 -2 0 -10 -6 -16 -14z"/>
<path d="M4691 2913 c7 -12 15 -20 18 -17 3 2 -3 12 -13 22 -17 16 -18 16 -5
-5z"/>
<path d="M616 2893 c-4 -9 -3 -20 1 -24 4 -4 9 3 9 17 2 28 -1 31 -10 7z"/>
<path d="M661 2874 c0 -11 3 -14 6 -6 3 7 2 16 -1 19 -3 4 -6 -2 -5 -13z"/>
<path d="M679 2858 c-6 -21 -5 -38 1 -38 5 0 8 9 7 20 -1 17 -5 26 -8 18z"/>
<path d="M4694 2840 c0 -13 4 -16 10 -10 7 7 7 13 0 20 -6 6 -10 3 -10 -10z"/>
<path d="M4676 2747 c3 -10 9 -15 12 -12 3 3 0 11 -7 18 -10 9 -11 8 -5 -6z"/>
<path d="M4655 2699 c-4 -6 -4 -13 -1 -16 3 -4 6 -1 6 6 0 7 5 9 12 5 7 -4 8
-3 4 4 -9 15 -13 15 -21 1z"/>
<path d="M4656 2607 c3 -10 9 -15 12 -12 3 3 0 11 -7 18 -10 9 -11 8 -5 -6z"/>
<path d="M4594 2498 c-4 -5 -3 -12 0 -15 3 -4 6 -1 6 6 0 7 4 10 9 6 5 -3 12
-2 15 3 3 5 -2 9 -10 9 -8 0 -17 -4 -20 -9z"/>
<path d="M4595 2431 c-3 -5 -2 -12 3 -15 5 -3 9 1 9 9 0 17 -3 19 -12 6z"/>
<path d="M4483 2324 c0 -16 13 -19 21 -5 3 5 0 11 -7 14 -8 3 -14 -1 -14 -9z"/>
<path d="M4530 2306 c0 -2 7 -7 16 -10 8 -3 12 -2 9 4 -6 10 -25 14 -25 6z"/>
<path d="M974 2201 c0 -11 5 -17 13 -14 10 4 11 9 2 19 -15 18 -15 18 -15 -5z"/>
<path d="M4450 2179 c0 -5 5 -7 10 -4 6 3 10 8 10 11 0 2 -4 4 -10 4 -5 0 -10
-5 -10 -11z"/>
<path d="M4415 2140 c-3 -6 1 -7 9 -4 18 7 21 14 7 14 -6 0 -13 -4 -16 -10z"/>
<path d="M4395 2099 c-4 -6 -5 -12 -2 -15 2 -3 7 2 10 11 7 17 1 20 -8 4z"/>
<path d="M4350 2060 c-12 -7 -10 -9 7 -7 12 0 19 5 17 9 -6 10 -6 10 -24 -2z"/>
<path d="M4356 2018 c3 -5 10 -6 15 -3 13 9 11 12 -6 12 -8 0 -12 -4 -9 -9z"/>
<path d="M974 2000 c0 -13 4 -16 10 -10 7 7 7 13 0 20 -6 6 -10 3 -10 -10z"/>
<path d="M4280 1966 c0 -2 8 -10 18 -17 15 -13 16 -12 3 4 -13 16 -21 21 -21
13z"/>
<path d="M911 1926 c-10 -12 -6 -26 10 -26 11 0 19 29 10 35 -5 2 -14 -1 -20
-9z"/>
<path d="M4235 1869 c-4 -6 -5 -12 -2 -15 2 -3 7 2 10 11 7 17 1 20 -8 4z"/>
<path d="M935 1860 c-3 -5 -1 -10 4 -10 6 0 11 5 11 10 0 6 -2 10 -4 10 -3 0
-8 -4 -11 -10z"/>
<path d="M910 1791 c0 -6 4 -13 10 -16 6 -3 7 1 4 9 -7 18 -14 21 -14 7z"/>
<path d="M3996 1691 c-4 -6 -2 -11 5 -11 7 0 5 -6 -6 -14 -21 -15 -30 -52 -15
-61 6 -4 10 -3 9 2 -3 18 1 34 9 30 4 -3 16 4 27 15 20 19 20 19 0 12 -18 -7
-18 -6 -6 9 7 9 17 14 22 11 5 -3 9 0 9 5 0 14 -17 14 -26 0 -5 -8 -9 -8 -14
1 -5 9 -9 9 -14 1z m14 -35 c0 -2 -7 -7 -16 -10 -8 -3 -12 -2 -9 4 6 10 25 14
25 6z"/>
<path d="M865 1680 c3 -5 8 -10 11 -10 2 0 4 5 4 10 0 6 -5 10 -11 10 -5 0 -7
-4 -4 -10z"/>
<path d="M4055 1669 c-4 -6 -5 -12 -2 -15 2 -3 7 2 10 11 7 17 1 20 -8 4z"/>
<path d="M553 1645 c0 -8 4 -12 9 -9 5 3 6 10 3 15 -9 13 -12 11 -12 -6z"/>
<path d="M762 1622 c-7 -15 -8 -30 -3 -35 5 -5 9 -2 8 9 -1 11 4 18 11 17 14
-3 15 6 4 24 -5 8 -11 3 -20 -15z"/>
<path d="M866 1638 c3 -5 10 -6 15 -3 13 9 11 12 -6 12 -8 0 -12 -4 -9 -9z"/>
<path d="M576 1622 c-3 -5 1 -9 9 -9 8 0 12 4 9 9 -3 4 -7 8 -9 8 -2 0 -6 -4
-9 -8z"/>
<path d="M686 1622 c-3 -5 1 -9 9 -9 8 0 12 4 9 9 -3 4 -7 8 -9 8 -2 0 -6 -4
-9 -8z"/>
<path d="M3797 1481 c-4 -17 -10 -22 -23 -17 -14 6 -15 4 -4 -9 12 -15 14 -15
22 -1 5 9 16 13 26 10 10 -4 13 -3 6 3 -6 4 -13 15 -16 23 -3 10 -6 7 -11 -9z"/>
<path d="M3780 1420 c-8 -5 -10 -10 -5 -10 6 0 17 5 25 10 8 5 11 10 5 10 -5
0 -17 -5 -25 -10z"/>
<path d="M3641 1357 c-8 -10 -6 -19 9 -34 10 -12 17 -24 14 -27 -2 -3 -1 -4 3
-1 3 3 12 0 19 -6 8 -7 14 -6 19 2 8 12 -14 31 -26 23 -4 -2 -12 3 -19 12 -12
13 -10 14 14 10 23 -4 26 -2 16 9 -6 8 -19 11 -27 8 -11 -4 -14 -2 -9 5 10 16
1 15 -13 -1z"/>
<path d="M3700 1360 c8 -5 20 -10 25 -10 6 0 3 5 -5 10 -8 5 -19 10 -25 10 -5
0 -3 -5 5 -10z"/>
<path d="M4036 1337 c3 -10 9 -15 12 -12 3 3 0 11 -7 18 -10 9 -11 8 -5 -6z"/>
<path d="M3716 1318 c3 -5 10 -6 15 -3 13 9 11 12 -6 12 -8 0 -12 -4 -9 -9z"/>
<path d="M3740 1305 c0 -5 5 -17 10 -25 9 -13 10 -13 10 0 1 12 3 11 11 -3 8
-13 15 -15 28 -7 10 5 21 6 25 3 3 -3 6 -2 6 4 0 6 -10 11 -22 10 -30 -1 -51
6 -60 18 -5 7 -8 7 -8 0z"/>
<path d="M3879 1305 c-1 -3 -2 -8 -3 -12 -1 -5 -5 -13 -9 -20 -4 -6 -3 -15 3
-18 6 -4 10 -3 9 2 -1 4 0 10 1 13 5 13 8 40 4 40 -2 0 -5 -2 -5 -5z"/>
<path d="M3716 1291 c-4 -7 -5 -15 -2 -18 9 -9 19 4 14 18 -4 11 -6 11 -12 0z"/>
<path d="M4360 1276 c7 -7 13 -7 20 0 6 6 3 10 -10 10 -13 0 -16 -4 -10 -10z"/>
<path d="M4516 1251 c-3 -5 -15 -7 -25 -4 -10 3 -22 0 -26 -6 -3 -6 -3 -11 2
-10 4 1 10 0 13 -1 15 -7 82 -5 87 2 3 5 13 2 24 -8 14 -13 22 -14 32 -5 8 6
16 9 18 6 3 -2 5 5 5 16 0 19 -1 19 -18 -3 -12 -15 -16 -17 -12 -5 4 10 1 17
-6 17 -6 0 -8 -4 -5 -10 3 -5 1 -10 -4 -10 -6 0 -11 4 -11 9 0 17 -29 20 -45
5 -14 -14 -19 -11 -16 9 1 10 -7 9 -13 -2z"/>
<path d="M4395 1230 c3 -5 8 -10 11 -10 2 0 4 5 4 10 0 6 -5 10 -11 10 -5 0
-7 -4 -4 -10z"/>
<path d="M4796 1145 c4 -8 8 -15 10 -15 2 0 4 7 4 15 0 8 -4 15 -10 15 -5 0
-7 -7 -4 -15z"/>
<path d="M4896 953 c-6 -14 -5 -15 5 -6 7 7 10 15 7 18 -3 3 -9 -2 -12 -12z"/>
<path d="M4874 899 c-2 -35 5 -33 12 5 2 14 1 26 -3 26 -5 0 -9 -14 -9 -31z"/>
<path d="M4620 855 c-17 -20 -7 -30 17 -16 14 8 14 10 3 11 -13 0 -13 1 0 10
8 5 10 10 4 10 -6 0 -17 -7 -24 -15z"/>
<path d="M4615 811 c-3 -5 -2 -12 3 -15 5 -3 9 1 9 9 0 17 -3 19 -12 6z"/>
<path d="M4525 800 c3 -5 8 -10 11 -10 2 0 4 5 4 10 0 6 -5 10 -11 10 -5 0 -7
-4 -4 -10z"/>
<path d="M4052 795 c4 -5 3 -14 -3 -22 -9 -9 -8 -13 0 -13 6 0 11 5 11 11 0 5
5 7 12 3 7 -5 5 -11 -7 -21 -21 -15 -8 -18 15 -3 17 11 4 40 -21 48 -8 3 -11
1 -7 -3z"/>
<path d="M4152 779 c-16 -25 5 -36 23 -13 18 24 18 31 1 31 -7 0 -18 -8 -24
-18z"/>
<path d="M4345 790 c-3 -5 1 -10 10 -10 9 0 13 5 10 10 -3 6 -8 10 -10 10 -2
0 -7 -4 -10 -10z"/>
<path d="M3965 753 c-17 -14 -21 -20 -10 -15 11 5 34 9 52 7 26 -1 31 1 24 13
-13 24 -34 22 -66 -5z m49 5 c-3 -4 -9 -8 -15 -8 -5 0 -9 4 -9 8 0 5 7 9 15 9
8 0 12 -4 9 -9z"/>
<path d="M4112 761 c-11 -6 -9 -9 6 -13 15 -4 19 -2 15 8 -6 16 -4 16 -21 5z"/>
<path d="M4210 740 c0 -5 5 -10 11 -10 5 0 7 5 4 10 -3 6 -8 10 -11 10 -2 0
-4 -4 -4 -10z"/>
<path d="M4093 725 c0 -8 4 -12 9 -9 5 3 6 10 3 15 -9 13 -12 11 -12 -6z"/>
<path d="M2406 718 c3 -5 10 -6 15 -3 13 9 11 12 -6 12 -8 0 -12 -4 -9 -9z"/>
<path d="M3779 713 c-12 -16 -12 -17 2 -6 9 7 19 10 22 6 4 -3 7 -1 7 5 0 17
-16 15 -31 -5z"/>
<path d="M2450 691 c0 -12 5 -21 11 -21 5 0 8 -4 5 -8 -2 -4 5 -9 16 -9 21 -2
21 -2 -1 13 -12 9 -19 19 -16 24 3 5 1 11 -5 15 -5 3 -10 -3 -10 -14z"/>
<path d="M2416 685 c-3 -8 -1 -15 4 -15 6 0 10 7 10 15 0 8 -2 15 -4 15 -2 0
-6 -7 -10 -15z"/>
<path d="M2559 678 c-6 -27 -5 -38 6 -42 10 -3 12 0 8 12 -6 15 -5 16 12 2 14
-11 17 -12 11 -1 -6 9 -5 12 5 9 8 -3 13 -12 11 -21 -1 -8 2 -18 8 -22 6 -4 7
1 3 11 -5 13 -3 15 7 9 9 -5 11 -4 6 3 -4 7 -2 12 5 12 25 0 -2 14 -29 15 -15
1 -33 5 -40 9 -7 4 -12 6 -13 4z"/>
<path d="M2816 658 c-9 -13 -14 -17 -11 -10 7 14 -11 17 -20 2 -3 -5 -12 -7
-20 -4 -8 4 -12 11 -9 16 4 6 -3 5 -15 -2 -24 -12 -23 -38 0 -31 18 5 54 4 99
-3 31 -4 32 -3 13 6 -25 12 -29 23 -11 34 6 4 8 3 5 -3 -4 -6 0 -14 9 -17 11
-4 14 -1 12 11 -5 27 -33 27 -52 1z"/>
<path d="M2998 653 c9 -4 10 -9 2 -18 -8 -9 -7 -14 4 -18 11 -4 13 -1 9 10 -5
12 -3 14 8 8 12 -8 12 -6 0 8 -7 9 -19 17 -25 16 -6 0 -6 -3 2 -6z"/>
<path d="M3147 653 c-3 -5 -2 -15 3 -23 7 -11 12 -12 21 -3 6 6 18 9 25 6 8
-3 14 -1 14 4 0 5 -6 10 -12 10 -7 0 -20 4 -29 7 -10 4 -19 3 -22 -1z"/>
<path d="M3044 638 c-3 -5 6 -7 20 -4 14 3 26 1 26 -4 0 -4 7 -11 16 -14 13
-5 14 -4 6 7 -7 8 -10 16 -8 18 3 2 -9 5 -25 5 -16 1 -32 -2 -35 -8z"/>
<path d="M3120 641 c0 -6 4 -13 10 -16 6 -3 7 1 4 9 -7 18 -14 21 -14 7z"/>
<path d="M3227 644 c-3 -3 -3 -13 0 -21 5 -12 7 -12 14 -1 15 23 4 40 -14 22z"/>
<path d="M2930 620 c0 -5 5 -10 11 -10 5 0 7 5 4 10 -3 6 -8 10 -11 10 -2 0
-4 -4 -4 -10z"/>
<path d="M3073 605 c0 -8 4 -12 9 -9 5 3 6 10 3 15 -9 13 -12 11 -12 -6z"/>
<path d="M3164 598 l-19 -23 23 19 c12 11 22 21 22 23 0 8 -8 2 -26 -19z"/>
<path d="M3210 611 c0 -6 4 -13 10 -16 6 -3 7 1 4 9 -7 18 -14 21 -14 7z"/>
<path d="M3119 593 c-13 -17 -13 -17 6 -3 11 8 22 16 24 17 2 2 0 3 -6 3 -6 0
-17 -8 -24 -17z"/>
<path d="M3415 601 c-3 -5 -2 -12 3 -15 5 -3 9 1 9 9 0 17 -3 19 -12 6z"/>
<path d="M3460 600 c0 -5 7 -7 15 -4 8 4 15 8 15 10 0 2 -7 4 -15 4 -8 0 -15
-4 -15 -10z"/>
<path d="M3576 601 c-4 -5 3 -7 14 -4 23 6 26 13 6 13 -8 0 -17 -4 -20 -9z"/>
<path d="M3630 599 c0 -5 5 -7 10 -4 6 3 10 8 10 11 0 2 -4 4 -10 4 -5 0 -10
-5 -10 -11z"/>
</g>
</svg>
